<svg xmlns="http://www.w3.org/2000/svg" width="24" height="24" fill="none" viewBox="0 0 24 24"><path fill="#000" fill-rule="evenodd" d="M1.5 6.5C1.5 3.73858 3.73858 1.5 6.5 1.5H17.5C20.2614 1.5 22.5 3.73858 22.5 6.5V17.5C22.5 20.2614 20.2614 22.5 17.5 22.5H6.5C3.73858 22.5 1.5 20.2614 1.5 17.5V6.5ZM6.5 2.5C4.29086 2.5 2.5 4.29086 2.5 6.5V17.5C2.5 19.7091 4.29086 21.5 6.5 21.5H17.5C19.7091 21.5 21.5 19.7091 21.5 17.5V6.5C21.5 4.29086 19.7091 2.5 17.5 2.5H6.5Z" clip-rule="evenodd"/><path fill="#000" fill-rule="evenodd" d="M9.26909 10.5565C9.43446 10.4704 9.634 10.4835 9.78673 10.5904L14.7867 14.0904C14.9204 14.1839 15 14.3368 15 14.5 15 14.6632 14.9204 14.816 14.7867 14.9096L9.78673 18.4096C9.634 18.5165 9.43446 18.5296 9.26909 18.4435 9.10373 18.3574 9 18.1864 9 18V11C9 10.8136 9.10373 10.6426 9.26909 10.5565zM10 11.9603V17.0397L13.6281 14.5 10 11.9603zM1.5 8C1.5 7.72386 1.72386 7.5 2 7.5H22C22.2761 7.5 22.5 7.72386 22.5 8 22.5 8.27614 22.2761 8.5 22 8.5H2C1.72386 8.5 1.5 8.27614 1.5 8z" clip-rule="evenodd"/><path fill="#000" fill-rule="evenodd" d="M7.84202 1.52566C8.10399 1.43833 8.38715 1.57991 8.47448 1.84188L10.4745 7.84188C10.5618 8.10386 10.4202 8.38702 10.1582 8.47434 9.89628 8.56166 9.61312 8.42008 9.52579 8.15811L7.52579 2.15811C7.43847 1.89614 7.58005 1.61298 7.84202 1.52566zM13.842 1.52566C14.104 1.43833 14.3872 1.57991 14.4745 1.84188L16.4745 7.84188C16.5618 8.10386 16.4202 8.38702 16.1582 8.47434 15.8963 8.56166 15.6131 8.42008 15.5258 8.15811L13.5258 2.15811C13.4385 1.89614 13.5801 1.61298 13.842 1.52566z" clip-rule="evenodd"/></svg>