<svg xmlns="http://www.w3.org/2000/svg" viewBox="0 0 48 48"><g data-name="9-Messager"><path d="M24,3C10.767,3,0,12.42,0,24A19.506,19.506,0,0,0,6.08,37.967L5.017,43.821A1,1,0,0,0,6,45a1.011,1.011,0,0,0,.359-.066l6.3-2.424A26.8,26.8,0,0,0,24,45c13.233,0,24-9.42,24-21S37.233,3,24,3Zm0,40a24.739,24.739,0,0,1-10.854-2.477,1,1,0,0,0-.8-.036L7.3,42.428,8.144,37.8a1,1,0,0,0-.3-.909A17.61,17.61,0,0,1,2,24C2,13.523,11.869,5,24,5s22,8.523,22,19S36.131,43,24,43Z"/><path d="M34.293,17.293,27,24.586l-4.293-4.293a1,1,0,0,0-1.414,0l-8,8a1,1,0,1,0,1.414,1.414L22,22.414l4.293,4.293a1,1,0,0,0,1.414,0l8-8a1,1,0,0,0-1.414-1.414Z"/></g></svg>